<svg width="1329" height="1329" viewBox="0 0 1329 1329" fill="none" xmlns="http://www.w3.org/2000/svg">
<path d="M940.871 110.763H387.465C234.646 110.763 110.762 234.648 110.762 387.466V940.873C110.762 1093.69 234.646 1217.58 387.465 1217.58H940.871C1093.69 1217.58 1217.57 1093.69 1217.57 940.873V387.466C1217.57 234.648 1093.69 110.763 940.871 110.763Z" stroke="#4B8298" stroke-width="60" stroke-linecap="round" stroke-linejoin="round"/>
<path d="M883.135 631.702C889.965 677.758 882.098 724.796 860.654 766.125C839.209 807.453 805.279 840.967 763.69 861.9C722.1 882.834 674.969 890.12 629 882.723C583.03 875.326 540.564 853.622 507.64 820.699C474.717 787.775 453.013 745.309 445.616 699.34C438.219 653.37 445.506 606.239 466.439 564.649C487.372 523.06 520.886 489.13 562.214 467.685C603.543 446.241 650.581 438.374 696.638 445.204C743.617 452.17 787.111 474.062 820.694 507.645C854.277 541.228 876.169 584.722 883.135 631.702Z" stroke="#4B8298" stroke-width="30" stroke-linecap="round" stroke-linejoin="round"/>
<path d="M968.536 359.797H969.066" stroke="#4B8298" stroke-linecap="round" stroke-linejoin="round"/>
</svg>
