<svg width="720" height="1218" viewBox="0 0 720 1218" fill="none" xmlns="http://www.w3.org/2000/svg">
<path fill-rule="evenodd" clip-rule="evenodd" d="M263.74 97.3371C326.01 35.0668 410.467 0.0837402 498.53 0.0837402H664.552C695.116 0.0837402 719.893 24.8606 719.893 55.4243V276.787C719.893 307.351 695.116 332.127 664.552 332.127H498.53V442.809H664.552C681.594 442.809 697.685 450.66 708.172 464.092C718.659 477.524 722.374 495.039 718.24 511.571L662.9 732.934C656.741 757.569 634.606 774.852 609.212 774.852H498.53V1162.24C498.53 1192.8 473.754 1217.58 443.19 1217.58H221.827C191.264 1217.58 166.487 1192.8 166.487 1162.24V774.852H55.8055C25.2417 774.852 0.464844 750.075 0.464844 719.512V498.149C0.464844 467.585 25.2417 442.809 55.8055 442.809H166.487V332.127C166.487 244.064 201.47 159.607 263.74 97.3371ZM498.53 110.765C439.821 110.765 383.517 134.087 342.004 175.6C300.49 217.114 277.168 273.418 277.168 332.127V498.149C277.168 528.713 252.391 553.49 221.827 553.49H111.146V664.171H221.827C252.391 664.171 277.168 688.948 277.168 719.512V1106.9H387.849V719.512C387.849 688.948 412.626 664.171 443.19 664.171H566.003L593.673 553.49H443.19C412.626 553.49 387.849 528.713 387.849 498.149V332.127C387.849 302.773 399.51 274.621 420.267 253.864C441.024 233.107 469.176 221.446 498.53 221.446H609.212V110.765H498.53Z" fill="#4B8298"/>
</svg>
