<svg width="1329" height="1329" viewBox="0 0 1329 1329" fill="none" xmlns="http://www.w3.org/2000/svg">
<path d="M1248.05 355.374C1241.48 329.11 1228.09 305.046 1209.24 285.612C1190.39 266.179 1166.74 252.064 1140.69 244.693C1045.5 221.45 664.761 221.45 664.761 221.45C664.761 221.45 284.017 221.45 188.831 246.907C162.78 254.277 139.134 268.392 120.284 287.826C101.433 307.26 88.0446 331.324 81.4707 357.588C64.0503 454.188 55.529 552.183 56.0141 650.34C55.3931 749.236 63.9149 847.978 81.4707 945.305C88.7181 970.754 102.406 993.902 121.213 1012.52C140.02 1031.13 163.31 1044.58 188.831 1051.56C284.017 1077.02 664.761 1077.02 664.761 1077.02C664.761 1077.02 1045.5 1077.02 1140.69 1051.56C1166.74 1044.19 1190.39 1030.07 1209.24 1010.64C1228.09 991.206 1241.48 967.142 1248.05 940.878C1265.34 845.005 1273.86 747.758 1273.51 650.34C1274.13 551.444 1265.61 452.702 1248.05 355.374Z" stroke="#4B8298" stroke-width="60" stroke-linecap="round" stroke-linejoin="round"/>
<path d="M540.25 831.293L858.459 650.329L540.25 469.365V831.293Z" stroke="#4B8298" stroke-width="30" stroke-linecap="round" stroke-linejoin="round"/>
</svg>
